<svg width="222" height="78" viewBox="0 0 222 78" fill="none" xmlns="http://www.w3.org/2000/svg">
<rect width="222" height="78" rx="2" fill="black"/>
<g clip-path="url(#clip0_534_534)">
<path fill-rule="evenodd" clip-rule="evenodd" d="M84.4141 32.4533C84.4141 30.0878 85.2396 28.2537 86.8907 26.9525C88.5404 25.6513 91.0566 25 94.4349 25H105.081V33.6761H98.8419L97.5553 25.789C96.6715 25.789 95.9309 25.9074 95.3322 26.1443C94.7335 26.3811 94.2534 26.6831 93.889 27.0517C93.5245 27.4203 93.2654 27.8274 93.1088 28.2744C92.9521 28.7215 92.8746 29.1552 92.8746 29.5756C92.8746 30.5215 93.1922 31.3698 93.8304 32.1188C94.4671 32.8678 95.2663 33.5843 96.228 34.2682C97.1897 34.9521 98.2363 35.6419 99.3662 36.3391C100.498 37.0364 101.543 37.812 102.506 38.6662C103.467 39.5204 104.267 40.4943 104.904 41.5839C105.54 42.6748 105.86 43.9568 105.86 45.4282C105.86 47.6635 105.034 49.4177 103.383 50.6922C101.732 51.9682 99.2174 52.6048 95.8372 52.6048H84.4141V43.9287H90.6525L91.9392 51.8158C93.9138 51.8158 95.3175 51.5197 96.1505 50.929C96.9819 50.3369 97.3976 49.4635 97.3976 48.306C97.3976 47.1484 97.0785 46.2231 96.4417 45.4474C95.805 44.6717 95.0043 43.9494 94.0441 43.2788C93.0824 42.6082 92.0358 41.9584 90.9058 41.3263C89.7758 40.6942 88.7278 39.9792 87.7661 39.1769C86.8044 38.3745 86.0051 37.442 85.3684 36.3776C84.7317 35.3118 84.4141 34.0047 84.4141 32.4533ZM110.306 52.6048V25H129.804V33.6761H123.565L121.498 25.789H118.886V36.5153H126.685V37.3043H118.886V51.8158H121.498L123.565 43.9287H129.804V52.6048H110.306ZM158.268 33.6761V25H133.35V33.6761H139.199L141.266 25.789H141.501V52.6048H150.079V25.789H150.352L152.419 33.6761H158.268ZM162.05 43.6918V25H170.629V50.0808C170.629 50.7381 170.824 51.2577 171.215 51.6381C171.604 52.02 172.137 52.2095 172.814 52.2095C173.489 52.2095 173.977 52.0186 174.353 51.6381C174.729 51.2577 174.918 50.7381 174.918 50.0808V25H183.497V43.6918C183.497 45.0862 183.276 46.3534 182.834 47.4977C182.392 48.642 181.769 49.6205 180.962 50.4361C180.155 51.2517 179.188 51.8824 178.056 52.3294C176.925 52.7764 175.671 53 174.293 53H171.251C169.873 53 168.62 52.7764 167.488 52.3294C166.357 51.8824 165.389 51.2517 164.583 50.4361C163.776 49.622 163.153 48.642 162.711 47.4977C162.268 46.3534 162.047 45.0862 162.047 43.6918H162.05ZM202.135 25H188.409V52.6048H196.989V40.7741H202.135C203.305 40.7741 204.365 40.5906 205.313 40.222C206.261 39.8534 207.074 39.322 207.75 38.6247C208.427 37.9275 208.946 37.0926 209.31 36.12C209.675 35.149 209.856 34.0698 209.856 32.8871C209.856 31.7043 209.675 30.6266 209.31 29.6541C208.946 28.6815 208.427 27.8466 207.75 27.1494C207.074 26.4537 206.261 25.9208 205.313 25.5522C204.365 25.1836 203.305 25 202.135 25ZM196.989 39.9852V25.789H197.183C198.534 25.789 199.555 26.4004 200.244 27.6231C200.932 28.8444 201.278 30.5734 201.278 32.8871C201.278 35.2007 200.926 36.9624 200.225 38.1717C199.522 39.3812 198.51 39.9852 197.183 39.9852H196.989Z" fill="url(#paint0_linear_534_534)"/>
<mask id="mask0_534_534" style="mask-type:luminance" maskUnits="userSpaceOnUse" x="11" y="28" width="68" height="20">
<path d="M78.0944 28.228H11V47.4502H78.0944V28.228Z" fill="white"/>
</mask>
<g mask="url(#mask0_534_534)">
<path fill-rule="evenodd" clip-rule="evenodd" d="M69.5155 41.7229V45.0537V45.0553L78.0742 41.6512H78.0947V38.2298H78.0742L69.5155 34.8084V38.1391L73.9058 39.931L69.5155 41.7229ZM60.8057 47.4502L65.8396 30.0963H68.8278L63.794 47.4502H60.8057ZM19.587 34.9659V38.2966L15.1936 40.0901L19.587 41.8931V45.2286L11.0173 41.8056H11V38.3873H11.0173L19.587 34.9659Z" fill="url(#paint1_linear_534_534)"/>
<path fill-rule="evenodd" clip-rule="evenodd" d="M32.1805 34.3342C33.0302 35.3383 33.4787 36.6624 33.4252 38.0182V45.4102H30.437V38.6977C30.4716 37.9497 30.2497 37.2146 29.8123 36.6305C29.6077 36.3743 29.3512 36.1722 29.0633 36.0369C28.7752 35.9033 28.4621 35.8396 28.149 35.8539C26.278 35.8539 25.3417 37.248 25.3417 40.0361V45.4102H22.3535V33.2743H25.3417V34.3708C25.8107 33.8806 26.3693 33.4987 26.9798 33.2473C27.592 32.9974 28.245 32.8828 28.898 32.9131C29.507 32.886 30.116 32.9974 30.6809 33.2425C31.2473 33.4876 31.7572 33.8599 32.1789 34.3342H32.1805Z" fill="white"/>
<path fill-rule="evenodd" clip-rule="evenodd" d="M37.2305 28.228V45.582H40.2187V28.228H37.2305Z" fill="white"/>
<path fill-rule="evenodd" clip-rule="evenodd" d="M57.106 44.9439H54.6135L52.1682 37.7954L49.7008 44.9439H47.2114L43.0225 32.7874H46.2153L48.5694 40.0568L50.9942 32.7874H53.3263L55.7512 40.0822L58.1053 32.7874H61.2981L57.106 44.9439Z" fill="white"/>
</g>
</g>
<defs>
<linearGradient id="paint0_linear_534_534" x1="84.4141" y1="38.965" x2="209.856" y2="38.965" gradientUnits="userSpaceOnUse">
<stop stop-color="#635FED"/>
<stop offset="1" stop-color="#54E694"/>
</linearGradient>
<linearGradient id="paint1_linear_534_534" x1="11" y1="38.7311" x2="81.4178" y2="38.7311" gradientUnits="userSpaceOnUse">
<stop stop-color="#8257E5"/>
<stop offset="1" stop-color="#635FED"/>
</linearGradient>
<clipPath id="clip0_534_534">
<rect width="199" height="28" fill="white" transform="translate(11 25)"/>
</clipPath>
</defs>
</svg>
