<svg width="36" height="36" viewBox="0 0 36 36" fill="none" xmlns="http://www.w3.org/2000/svg">
  <path fill-rule="evenodd" clip-rule="evenodd"
    d="M16.3796 13.5412V18.7065L20.746 16.1236L16.3796 13.5412ZM17.239 12.0884C16.1121 11.4215 14.6921 12.2368 14.6921 13.5421V18.7066C14.6921 20.0116 16.1132 20.825 17.239 20.1588C17.2389 20.1589 17.2391 20.1587 17.239 20.1588L21.6045 17.5764C21.6044 17.5764 21.6046 17.5763 21.6045 17.5764C22.7096 16.9244 22.7099 15.3231 21.6049 14.6711C21.605 14.6712 21.6048 14.671 21.6049 14.6711L17.239 12.0884C17.2391 12.0884 17.2389 12.0884 17.239 12.0884Z"
    fill="white" />
  <path fill-rule="evenodd" clip-rule="evenodd"
    d="M7.63014 3.65625C5.62913 3.65625 3.82239 5.11012 3.82239 7.119V24.0896C2.85831 24.3803 2.15576 25.2754 2.15576 26.334V28.5C2.15576 30.6235 3.87602 32.3437 5.99951 32.3437H29.9995C32.123 32.3437 33.8433 30.6235 33.8433 28.5V26.334C33.8433 25.2739 33.1406 24.3799 32.1769 24.0896V7.119C32.1769 5.11012 30.3701 3.65625 28.3691 3.65625H7.63014ZM31.3268 25.6777C31.3289 25.6777 31.331 25.6777 31.3331 25.6777C31.3353 25.6777 31.3374 25.6777 31.3395 25.6777H31.4995C31.8621 25.6777 32.1558 25.971 32.1558 26.334V28.5C32.1558 29.6915 31.191 30.6562 29.9995 30.6562H5.99951C4.808 30.6562 3.84326 29.6915 3.84326 28.5V26.334C3.84326 25.972 4.1375 25.6777 4.49951 25.6777H4.65977C4.66189 25.6777 4.66401 25.6777 4.66614 25.6777C4.66826 25.6777 4.67038 25.6777 4.67251 25.6777H10.5295C10.7494 25.6777 10.9547 25.788 11.0751 25.9689L11.8511 27.1322C12.2857 27.7847 13.0192 28.1752 13.801 28.1752H22.1965C22.9785 28.1752 23.7121 27.7846 24.1467 27.1317L24.9224 25.9689C25.0876 25.7208 25.209 25.6777 25.3564 25.6777H31.3268ZM30.4894 23.9902V7.119C30.4894 6.23288 29.6411 5.34375 28.3691 5.34375H7.63014C6.35814 5.34375 5.50989 6.23288 5.50989 7.119V23.9902H10.5295C11.3113 23.9902 12.0448 24.3806 12.4794 25.0332L13.2554 26.1965C13.3758 26.3775 13.5812 26.4877 13.801 26.4877H22.1965C22.4164 26.4877 22.6217 26.3775 22.7421 26.1965L23.5176 25.034C23.9074 24.4483 24.5019 23.9902 25.3564 23.9902H30.4894Z"
    fill="#857BF8" />
</svg>