<svg width="40" height="40" viewBox="0 0 40 40" fill="none" xmlns="http://www.w3.org/2000/svg">
  <path
    d="M10.21 23L5 28.3333L9.16667 30.8333L11.6667 35L18.165 28.175M21.8359 28.175L28.3343 35L30.8343 30.8333L35.0009 28.3333L29.7909 23M28.2483 8.41709C32.8044 12.9732 32.8044 20.3601 28.2483 24.9162C23.6922 29.4724 16.3052 29.4724 11.7491 24.9162C7.193 20.3601 7.193 12.9732 11.7491 8.41709C16.3052 3.86097 23.6922 3.86097 28.2483 8.41709Z"
    stroke="#857BF8" stroke-width="2" stroke-linecap="round" stroke-linejoin="round" />
  <path fill-rule="evenodd" clip-rule="evenodd"
    d="M19.9993 20.9735L22.9943 22.5468C23.5777 22.8535 24.2593 22.3585 24.1477 21.7085L23.576 18.3735L25.9993 16.0135C26.471 15.5535 26.211 14.7518 25.5593 14.6568L22.211 14.1702L20.7143 11.1352C20.4227 10.5435 19.581 10.5435 19.2893 11.1352L17.7927 14.1702L14.4427 14.6585C13.791 14.7535 13.531 15.5552 14.0027 16.0152L16.426 18.3752L15.8543 21.7102C15.7427 22.3602 16.4243 22.8552 17.0077 22.5485L20.0027 20.9752H19.9993V20.9735Z"
    stroke="white" stroke-width="2" stroke-linecap="round" stroke-linejoin="round" />
</svg>