<svg width="40" height="40" viewBox="0 0 40 40" fill="none" xmlns="http://www.w3.org/2000/svg">
  <path
    d="M14.2942 27.3738C14.6847 27.7643 15.3179 27.7643 15.7084 27.3738C16.0989 26.9832 16.0989 26.3501 15.7084 25.9596L14.2942 27.3738ZM11.668 23.3333L10.9609 22.6262C10.7733 22.8138 10.668 23.0681 10.668 23.3333C10.668 23.5985 10.7733 23.8529 10.9609 24.0404L11.668 23.3333ZM15.7084 20.7071C16.0989 20.3166 16.0989 19.6834 15.7084 19.2929C15.3179 18.9024 14.6847 18.9024 14.2942 19.2929L15.7084 20.7071ZM25.7071 19.2929C25.3166 18.9024 24.6834 18.9024 24.2929 19.2929C23.9024 19.6834 23.9024 20.3166 24.2929 20.7071L25.7071 19.2929ZM28.3333 23.3333L29.0404 24.0404C29.431 23.6499 29.431 23.0168 29.0404 22.6262L28.3333 23.3333ZM24.2929 25.9596C23.9024 26.3501 23.9024 26.9832 24.2929 27.3738C24.6834 27.7643 25.3166 27.7643 25.7071 27.3738L24.2929 25.9596ZM7 6H33V4H7V6ZM34 7V33H36V7H34ZM33 34H7V36H33V34ZM6 33V7H4V33H6ZM7 34C6.44772 34 6 33.5523 6 33H4C4 34.6569 5.34315 36 7 36V34ZM34 33C34 33.5523 33.5523 34 33 34V36C34.6569 36 36 34.6569 36 33H34ZM33 6C33.5523 6 34 6.44772 34 7H36C36 5.34315 34.6569 4 33 4V6ZM7 4C5.34315 4 4 5.34315 4 7H6C6 6.44772 6.44772 6 7 6V4ZM35 10.6673H5V12.6673H35V10.6673ZM15.7084 25.9596L12.3751 22.6262L10.9609 24.0404L14.2942 27.3738L15.7084 25.9596ZM12.3751 24.0404L15.7084 20.7071L14.2942 19.2929L10.9609 22.6262L12.3751 24.0404ZM24.2929 20.7071L27.6262 24.0404L29.0404 22.6262L25.7071 19.2929L24.2929 20.7071ZM27.6262 22.6262L24.2929 25.9596L25.7071 27.3738L29.0404 24.0404L27.6262 22.6262Z"
    fill="#857BF8" />
  <path d="M21.294 18.334L18.5156 28.334" stroke="white" stroke-width="2" stroke-linecap="round"
    stroke-linejoin="round" />
</svg>