<svg width="59" height="74" viewBox="0 0 59 74" fill="none" xmlns="http://www.w3.org/2000/svg">
  <g clip-path="url(#clip0_3222_1140)">
    <path
      d="M26.887 10.0533C26.887 12.0018 26.3837 13.5993 25.3772 14.8457C24.3708 16.0921 23.0776 17.1132 21.4947 17.912C19.9148 18.7107 18.171 19.3573 16.2721 19.8518C14.3704 20.3462 12.5271 20.8027 10.7365 21.2181C8.94587 21.6336 7.33375 22.0812 5.89718 22.5582C4.46061 23.038 3.42195 23.6758 2.78119 24.4746H26.4042V34.9694H0.52832V28.0206C0.52832 26.4875 0.920381 25.0246 1.70158 23.6349C2.48277 22.2451 3.46583 20.9197 4.64786 19.6587C5.82989 18.3977 7.11432 17.1834 8.50407 16.0161C9.89383 14.8516 11.1783 13.731 12.3603 12.6631C13.5424 11.5922 14.5254 10.5623 15.3066 9.57343C16.0878 8.5845 16.4799 7.61021 16.4799 6.65055C16.4799 6.23509 16.3833 5.78159 16.1931 5.2842C16 4.78974 15.6811 4.32453 15.2335 3.89444C14.7858 3.46435 14.1948 3.10447 13.4604 2.81774C12.726 2.53101 11.8161 2.38765 10.7277 2.38765L9.14482 11.9726H1.47629V1.43091H14.5576C18.7093 1.43091 21.8019 2.20625 23.8295 3.754C25.8571 5.30468 26.8723 7.40541 26.8723 10.0562L26.887 10.0533Z"
      fill="#121214" />
    <path
      d="M30.6729 18.2015C30.6729 14.8778 31.0708 12.1158 31.8695 9.91267C32.6683 7.70954 33.7157 5.94235 35.0089 4.61696C36.3021 3.29157 37.7797 2.34947 39.4415 1.79064C41.1034 1.23181 42.8121 0.950928 44.5675 0.950928C46.323 0.950928 48.0346 1.23181 49.6965 1.79064C51.3583 2.34947 52.8359 3.29157 54.1291 4.61696C55.4223 5.94235 56.4697 7.70661 57.2685 9.91267C58.0672 12.1158 58.4651 14.8807 58.4651 18.2015C58.4651 21.5223 58.0643 24.2462 57.2685 26.4669C56.4697 28.6876 55.4223 30.4606 54.1291 31.786C52.8359 33.1114 51.3583 34.0535 49.6965 34.6123C48.0346 35.1712 46.326 35.452 44.5675 35.452C42.8091 35.452 41.1005 35.1712 39.4415 34.6123C37.7797 34.0535 36.3021 33.1114 35.0089 31.786C33.7157 30.4606 32.6683 28.6876 31.8695 26.4669C31.0708 24.2462 30.6729 21.493 30.6729 18.2015ZM41.2146 18.4414C41.2146 21.0278 41.2702 23.2163 41.3813 25.0069C41.4925 26.7975 41.6447 28.2897 41.8378 29.4863C42.0309 30.683 42.2445 31.6192 42.4844 32.2892C42.7243 32.9592 42.9554 33.4566 43.1807 33.7755C43.4031 34.0945 43.6196 34.2963 43.8273 34.3753C44.035 34.4543 44.2194 34.4953 44.3774 34.4953H44.7606C44.9186 34.4953 45.103 34.4543 45.3107 34.3753C45.5184 34.2963 45.7349 34.0945 45.9573 33.7755C46.1797 33.4566 46.4137 32.9622 46.6536 32.2892C46.8936 31.6192 47.1101 30.683 47.3002 29.4863C47.4904 28.2897 47.6426 26.7946 47.7567 25.0069C47.8679 23.2192 47.9234 21.0307 47.9234 18.4414C47.9234 15.6619 47.8591 13.3212 47.7303 11.4224C47.6016 9.52062 47.4261 7.95531 47.2037 6.72647C46.9784 5.49763 46.7414 4.55552 46.4839 3.90014C46.2265 3.24476 45.9807 2.7737 45.7408 2.48698C45.5009 2.20025 45.2785 2.03055 45.0708 1.98374C44.8631 1.93692 44.6963 1.91059 44.5675 1.91059C44.471 1.91059 44.3101 1.934 44.0877 1.98374C43.8653 2.03055 43.6313 2.20025 43.3914 2.48698C43.1515 2.7737 42.9028 3.24476 42.6482 3.90014C42.3907 4.55552 42.1538 5.49763 41.9285 6.72647C41.7061 7.95531 41.5276 9.52062 41.4018 11.4224C41.2731 13.3242 41.2116 15.6648 41.2116 18.4414H41.2146Z"
      fill="#121214" />
    <path
      d="M26.887 48.1299C26.887 50.0785 26.3837 51.676 25.3772 52.9224C24.3708 54.1688 23.0776 55.1899 21.4947 55.9886C19.9148 56.7874 18.171 57.434 16.2721 57.9284C14.3704 58.4229 12.5271 58.8793 10.7365 59.2948C8.94587 59.7103 7.33375 60.1579 5.89718 60.6348C4.46061 61.1146 3.42195 61.7525 2.78119 62.5512H26.4042V73.0461H0.52832V66.0973C0.52832 64.5642 0.920381 63.1013 1.70158 61.7115C2.48277 60.3217 3.46583 58.9964 4.64786 57.7353C5.82989 56.4743 7.11432 55.2601 8.50407 54.0927C9.89383 52.9282 11.1783 51.8077 12.3603 50.7397C13.5424 49.6689 14.5254 48.639 15.3066 47.6501C16.0878 46.6612 16.4799 45.6869 16.4799 44.7272C16.4799 44.3117 16.3833 43.8582 16.1931 43.3608C16 42.8664 15.6811 42.4012 15.2335 41.9711C14.7858 41.541 14.1948 41.1811 13.4604 40.8944C12.726 40.6077 11.8161 40.4643 10.7277 40.4643L9.14482 50.0492H1.47629V39.5076H14.5576C18.7093 39.5076 21.8019 40.2829 23.8295 41.8307C25.8571 43.3813 26.8723 45.4821 26.8723 48.1328L26.887 48.1299Z"
      fill="#121214" />
    <path
      d="M31.5831 73.0488V62.5071H39.2516L40.8315 72.092H42.1745C43.8041 72.092 45.0505 71.3898 45.9137 69.9825C46.7768 68.5781 47.2069 66.7232 47.2069 64.4235C47.2069 62.1238 46.7826 60.2718 45.9371 58.8645C45.0915 57.4601 43.8363 56.7549 42.1745 56.7549H37.1421V55.7953H41.2148C42.8445 55.7953 44.0909 55.0931 44.9511 53.6858C45.8142 52.2814 46.2443 50.4264 46.2443 48.1267C46.2443 45.8271 45.82 43.975 44.9745 42.5677C44.1289 41.1633 42.8737 40.4582 41.2119 40.4582H40.8286L39.2487 50.0431H31.5801V39.5015H47.2976C48.7341 39.5015 50.0361 39.7268 51.2035 40.1715C52.368 40.6191 53.3686 41.2248 54.1995 41.9913C55.0305 42.7579 55.6683 43.6678 56.1159 44.724C56.5636 45.7773 56.7859 46.9125 56.7859 48.1267C56.7859 49.9788 56.2827 51.6172 55.2762 53.0392C54.2698 54.4611 52.8712 55.491 51.0835 56.1288C53.1609 56.6408 54.7905 57.6473 55.9726 59.1483C57.1546 60.6492 57.7456 62.4076 57.7456 64.4206C57.7456 65.6348 57.5203 66.77 57.0756 67.8233C56.628 68.8766 55.9901 69.7894 55.1592 70.556C54.3283 71.3225 53.3306 71.9311 52.1632 72.3758C50.9958 72.8235 49.6967 73.0458 48.2572 73.0458H31.5801L31.5831 73.0488Z"
      fill="#121214" />
  </g>
  <defs>
    <clipPath id="clip0_3222_1140">
      <rect width="59" height="74" fill="white" />
    </clipPath>
  </defs>
</svg>