<svg width="40" height="40" viewBox="0 0 40 40" fill="none" xmlns="http://www.w3.org/2000/svg">
  <path
    d="M29.5116 31.5967C27.1199 29.0783 23.7466 27.5 19.9999 27.5C16.2533 27.5 12.8799 29.0783 10.4883 31.5983"
    stroke="white" stroke-width="2" stroke-linecap="round" stroke-linejoin="round"></path>
  <path
    d="M30.6066 9.3934C36.4644 15.2513 36.4644 24.7487 30.6066 30.6066C24.7487 36.4644 15.2512 36.4644 9.3934 30.6066C3.53553 24.7487 3.53553 15.2512 9.3934 9.3934C15.2513 3.53553 24.7487 3.53553 30.6066 9.3934"
    stroke="#857BF8" stroke-width="2" stroke-linecap="round" stroke-linejoin="round"></path>
  <path
    d="M23.3152 13.8732C25.1461 15.7041 25.1461 18.6726 23.3152 20.5035C21.4843 22.3344 18.5158 22.3344 16.6849 20.5035C14.854 18.6726 14.854 15.7041 16.6849 13.8732C18.5158 12.0423 21.4843 12.0423 23.3152 13.8732"
    stroke="white" stroke-width="2" stroke-linecap="round" stroke-linejoin="round"></path>
</svg>