<svg width="100" height="100" viewBox="0 0 100 100" fill="none" xmlns="http://www.w3.org/2000/svg">
  <g clip-path="url(#clip0_3227_1140)">
    <path
      d="M92 0H8C3.58172 0 0 3.58172 0 8V92C0 96.4183 3.58172 100 8 100H92C96.4183 100 100 96.4183 100 92V8C100 3.58172 96.4183 0 92 0Z"
      fill="url(#paint0_linear_3227_1140)" />
    <path d="M50.0193 82.9999L59.8155 39.9021L79.0268 66.2487L50.0193 82.9999Z" fill="#02799C" />
    <path d="M50.0193 82.9999L59.8155 39.9021L79.0268 66.2487L50.0193 82.9999Z" fill="#0093BF" />
    <path d="M50.0193 82.9998L60.7171 43.5083L79.0268 66.2486L50.0193 82.9998Z" fill="#0093BF" />
    <path d="M50.0178 83.0002L21 66.2489V32.749L50.0178 83.0002Z" fill="#0A3442" />
    <path d="M79.0268 32.7487L59.8155 39.902L50.0193 16L79.0268 32.7487Z" fill="#85E8FF" />
    <path d="M61.2323 38.3565L50.0193 16L59.8155 39.902L79.0268 32.7487L61.2323 38.3565Z"
      fill="#CFF6FF" />
    <path d="M59.8141 39.902L21 32.7487L50.0178 16L59.8141 39.902Z" fill="#42D2FF" />
    <path d="M59.8141 39.902L21 32.7487L50.0178 16L59.8141 39.902Z" fill="#42D2FF" />
    <path d="M59.8141 39.902L50.0178 16L57.8821 38.5497L21 32.7487L59.8141 39.902Z" fill="#85E8FF" />
    <path d="M50.0178 83.0002L21 32.749L59.8141 39.9023L50.0178 83.0002Z" fill="#065E7C" />
    <path d="M79.0242 32.749V66.2489L59.813 39.9024L79.0242 32.749Z" fill="#42D2FF" />
    <path d="M79.0242 32.749L59.813 39.9024L79.0242 66.2489L61.4873 40.2887L79.0242 32.749Z"
      fill="#85E8FF" />
  </g>
  <defs>
    <linearGradient id="paint0_linear_3227_1140" x1="94" y1="3.32117e-06" x2="6" y2="100"
      gradientUnits="userSpaceOnUse">
      <stop stop-color="#0B2E39" />
      <stop offset="1" stop-color="#111418" />
    </linearGradient>
    <clipPath id="clip0_3227_1140">
      <rect width="100" height="100" fill="white" />
    </clipPath>
  </defs>
</svg>