<svg width="218" height="31" viewBox="0 0 218 31" fill="none" xmlns="http://www.w3.org/2000/svg">
  <g clip-path="url(#clip0_3227_1168)">
    <path
      d="M13.5 24.7667L20.4288 22.8833L21.3651 12.7167H9.03972L8.73329 9.33333H21.6715L22.012 6.01667H4.98802L5.94136 16.0333H17.6709L17.2793 20.3333L13.5 21.3333L9.72068 20.3333L9.48235 17.5667H6.07755L6.57125 22.8833L13.5 24.7667ZM0 0.5H27L24.5656 27.5L13.5 30.5L2.43443 27.5L0 0.5Z"
      fill="#E1E1E6" />
    <path
      d="M47.4366 1.5L46.4557 6.69556H66.9638L66.2998 10.0556H45.8068L44.8109 15.2356H65.3189L64.172 21.1622L55.9024 23.9778L48.7344 21.1622L49.2324 18.6111H44.1922L43 24.8333L54.8461 29.5L68.503 24.8333L70.3139 15.4533L70.6761 13.5711L73 1.5H47.4366Z"
      fill="#E1E1E6" />
    <path
      d="M89 23.5134L93.1955 21.0079C94.0048 22.4246 94.7416 23.6226 96.5079 23.6226C98.2003 23.6226 99.268 22.9722 99.268 20.4265V3.13819H104.42V20.498C104.42 25.7638 101.293 28.1613 96.7293 28.1613C95.1161 28.2475 93.5142 27.8494 92.1348 27.0195C90.7553 26.1896 89.6628 24.9667 89.0013 23.5121L89 23.5134ZM107.22 22.967L111.416 20.5695C111.882 21.5035 112.606 22.2887 113.504 22.8347C114.403 23.3808 115.439 23.6656 116.494 23.6565C118.63 23.6565 119.99 22.6028 119.99 21.1497C119.99 19.4066 118.591 18.7887 116.236 17.7675L114.952 17.229C111.235 15.668 108.769 13.7063 108.769 9.56568C108.769 5.7516 111.713 2.8468 116.314 2.8468C117.804 2.74018 119.294 3.06908 120.596 3.79247C121.898 4.51587 122.956 5.60172 123.637 6.91455L119.625 9.45771C119.361 8.80602 118.904 8.24868 118.312 7.85956C117.72 7.47044 117.023 7.2679 116.312 7.27879C116.002 7.24785 115.689 7.28102 115.393 7.37616C115.097 7.4713 114.824 7.62634 114.592 7.83136C114.36 8.03639 114.174 8.28691 114.045 8.56693C113.917 8.84696 113.849 9.15034 113.846 9.45771C113.846 10.9836 114.803 11.6002 117.01 12.5446L118.297 13.0897C122.677 14.9421 125.142 16.8309 125.142 21.0795C125.142 25.6559 121.499 28.1626 116.605 28.1626C111.82 28.1626 108.729 25.9108 107.22 22.9683"
      fill="#E1E1E6" />
    <mask id="mask0_3227_1168" style="mask-type:luminance" maskUnits="userSpaceOnUse" x="141" y="0"
      width="33" height="31">
      <path d="M173.142 0H141.142V31H173.142V0Z" fill="white" />
    </mask>
    <g mask="url(#mask0_3227_1168)">
      <path
        d="M172.539 14.1195L158.568 0.585229C158.376 0.399696 158.149 0.252517 157.899 0.152101C157.649 0.0516848 157.381 0 157.11 0C156.839 0 156.571 0.0516848 156.321 0.152101C156.071 0.252517 155.844 0.399696 155.652 0.585229L152.752 3.39619L156.432 6.96083C156.864 6.8185 157.329 6.79628 157.774 6.89668C158.219 6.99709 158.626 7.2161 158.949 7.52896C159.274 7.84409 159.501 8.24145 159.604 8.67561C159.707 9.10976 159.681 9.56318 159.531 9.984L163.078 13.4198C163.513 13.2736 163.981 13.2489 164.429 13.3487C164.878 13.4485 165.288 13.6686 165.613 13.9838C165.84 14.2044 166.021 14.4662 166.144 14.7544C166.268 15.0426 166.331 15.3515 166.331 15.6634C166.331 15.9754 166.268 16.2843 166.144 16.5724C166.021 16.8606 165.84 17.1225 165.613 17.343C165.152 17.7885 164.528 18.0388 163.878 18.0388C163.227 18.0388 162.603 17.7885 162.142 17.343C161.8 17.0112 161.567 16.5888 161.473 16.1289C161.378 15.6691 161.426 15.1923 161.61 14.7588L158.302 11.5548V19.988C158.651 20.1551 158.954 20.4004 159.186 20.7036C159.418 21.0067 159.572 21.3591 159.635 21.7314C159.699 22.1036 159.669 22.4852 159.55 22.8444C159.431 23.2036 159.225 23.5301 158.95 23.7969C158.722 24.0175 158.452 24.1925 158.154 24.3119C157.857 24.4313 157.538 24.4927 157.216 24.4927C156.894 24.4927 156.575 24.4313 156.278 24.3119C155.98 24.1925 155.71 24.0175 155.482 23.7969C155.254 23.5763 155.074 23.3145 154.951 23.0263C154.827 22.738 154.764 22.4291 154.764 22.1171C154.764 21.8052 154.827 21.4962 154.951 21.208C155.074 20.9198 155.254 20.6579 155.482 20.4374C155.712 20.2147 155.984 20.0382 156.285 19.9182V11.4074C155.986 11.288 155.714 11.1127 155.485 10.8913C155.256 10.67 155.075 10.407 154.951 10.1175C154.828 9.82807 154.764 9.51779 154.765 9.20452C154.765 8.89125 154.83 8.58117 154.954 8.29209L151.326 4.7767L141.745 14.056C141.359 14.4308 141.142 14.9386 141.142 15.4681C141.142 15.9976 141.359 16.5054 141.745 16.8802L155.718 30.4161C156.104 30.79 156.629 31 157.175 31C157.722 31 158.246 30.79 158.632 30.4161L172.539 16.9436C172.925 16.5688 173.142 16.061 173.142 15.5315C173.142 15.0021 172.925 14.4942 172.539 14.1195Z"
        fill="#E1E1E6" />
    </g>
    <path
      d="M203.142 1C195.411 1 189.142 7.66094 189.142 15.869C189.142 22.4393 193.155 28.0062 198.717 29.9741C198.795 29.9916 198.875 30.0003 198.955 30C199.474 30 199.674 29.6051 199.674 29.262C199.674 28.906 199.661 27.9739 199.655 26.731C199.192 26.8435 198.718 26.9021 198.242 26.9058C195.549 26.9058 194.936 24.7373 194.936 24.7373C194.299 23.0219 193.38 22.5623 193.38 22.5623C192.161 21.6754 193.374 21.6495 193.467 21.6495H193.474C194.88 21.779 195.617 23.1902 195.617 23.1902C196.317 24.4589 197.255 24.8149 198.092 24.8149C198.646 24.8035 199.191 24.6711 199.692 24.4266C199.817 23.4685 200.18 22.8147 200.58 22.4393C197.474 22.0638 194.205 20.7886 194.205 15.0922C194.205 13.4674 194.749 12.1404 195.642 11.1047C195.499 10.7292 195.017 9.21451 195.78 7.16897C195.882 7.14362 195.987 7.13274 196.092 7.13661C196.599 7.13661 197.742 7.33727 199.63 8.69665C201.923 8.03205 204.349 8.03205 206.642 8.69665C208.53 7.33727 209.674 7.13661 210.18 7.13661C210.285 7.13274 210.39 7.14362 210.492 7.16897C211.255 9.21451 210.774 10.7292 210.63 11.1047C211.524 12.1469 212.067 13.4739 212.067 15.0922C212.067 20.8016 208.792 22.0574 205.674 22.4263C206.174 22.8859 206.624 23.7922 206.624 25.1774C206.624 27.1647 206.605 28.7701 206.605 29.2556C206.605 29.6051 206.799 30 207.317 30C207.401 30.0004 207.485 29.9917 207.567 29.9741C213.136 28.0062 217.142 22.4328 217.142 15.869C217.142 7.66094 210.874 1 203.142 1Z"
      fill="#E1E1E6" />
  </g>
  <defs>
    <clipPath id="clip0_3227_1168">
      <rect width="218" height="31" fill="white" />
    </clipPath>
  </defs>
</svg>