<svg width="133" height="133" viewBox="0 0 133 133" fill="none" xmlns="http://www.w3.org/2000/svg">
  <g clip-path="url(#clip0_3222_1146)">
    <path
      d="M69.04 7.89968L69.8153 0L72.8816 0.301358C73.9729 0.409612 74.7658 0.716822 75.2602 1.22884C75.7547 1.73793 75.9566 2.45475 75.8659 3.37638C75.6845 5.22841 74.5112 6.04764 72.352 5.83698L71.6878 5.77262L71.4567 8.13959L69.0458 7.9026L69.04 7.89968ZM72.551 3.8884C72.8962 3.92351 73.1537 3.88547 73.3175 3.77429C73.4814 3.66311 73.5779 3.46123 73.6072 3.16572C73.6364 2.87022 73.5808 2.65371 73.4433 2.51327C73.3029 2.37283 73.063 2.28505 72.7148 2.25287L72.0389 2.18558L71.878 3.82403L72.5539 3.89132L72.551 3.8884Z"
      fill="#121214" />
    <path
      d="M81.3496 9.86286L80.7206 7.0892L79.8575 6.87854L79.2577 9.35377L76.9551 8.79495L78.8305 1.08252L82.1367 1.88712C83.1666 2.13874 83.8951 2.53957 84.3193 3.09255C84.7465 3.64553 84.8577 4.34187 84.6529 5.17572C84.41 6.1705 83.8541 6.82003 82.9764 7.12431L83.8571 10.4744L81.3496 9.86579V9.86286ZM81.1097 5.29568C81.4638 5.38053 81.7359 5.38053 81.929 5.28983C82.1221 5.19913 82.2537 5.00895 82.3239 4.72222C82.3942 4.43549 82.3649 4.20436 82.2332 4.03758C82.1016 3.86789 81.8617 3.74208 81.5076 3.6543L80.6855 3.45535L80.2876 5.09673L81.1097 5.29568Z"
      fill="#121214" />
    <path d="M85.085 10.9955L87.806 3.5376L90.1759 4.40364L87.455 11.8615L85.085 10.9955Z"
      fill="#121214" />
    <path
      d="M94.9603 15.3984L96.7772 11.9079L93.9157 14.8571L92.3387 14.0349L93.1082 10.0003L91.2913 13.4907L89.29 12.4492L92.9531 5.40674L95.5162 6.7409L94.5916 11.7001L98.1201 8.09555L100.674 9.42387L97.0112 16.4663L94.9603 15.3984Z"
      fill="#121214" />
    <path
      d="M98.5381 17.555L103.249 11.165L108 14.6702L106.845 16.2355L104.089 14.202L103.489 15.0154L106.066 16.9172L104.911 18.4825L102.333 16.5807L101.686 17.4584L104.621 19.6235L103.313 21.0777L98.5352 17.555H98.5381Z"
      fill="#121214" />
    <path d="M104.618 22.2686L109.966 16.4023L111.83 18.1022L106.482 23.9685L104.618 22.2686Z"
      fill="#121214" />
    <path
      d="M110.917 28.6819L111.991 26.0487L111.403 25.3816L109.49 27.0639L107.927 25.285L113.887 20.042L116.134 22.5962C116.833 23.392 117.199 24.1381 117.231 24.8374C117.263 25.5367 116.956 26.1686 116.31 26.7362C115.54 27.4121 114.712 27.6228 113.82 27.3711L112.62 30.6188L110.917 28.6819ZM113.34 24.8052C113.58 25.0773 113.805 25.2324 114.016 25.2704C114.227 25.3084 114.443 25.2294 114.665 25.0334C114.888 24.8374 114.993 24.6326 114.984 24.419C114.976 24.2054 114.85 23.9626 114.61 23.6905L114.051 23.0556L112.781 24.1703L113.34 24.8052Z"
      fill="#121214" />
    <path
      d="M115.166 34.8025C114.484 33.7434 114.259 32.7281 114.49 31.7538C114.721 30.7825 115.391 29.9398 116.5 29.2259C117.228 28.7578 117.942 28.4828 118.642 28.4038C119.341 28.3248 119.993 28.4477 120.605 28.7754C121.216 29.103 121.752 29.6268 122.217 30.3494C122.899 31.4086 123.124 32.4238 122.893 33.3981C122.662 34.3724 121.995 35.2092 120.892 35.9202C119.768 36.6428 118.706 36.9032 117.702 36.7072C116.699 36.5112 115.853 35.8763 115.163 34.8025H115.166ZM117.006 33.6585C117.506 34.4368 118.32 34.466 119.44 33.7463C120.564 33.0236 120.874 32.2746 120.374 31.4964C119.873 30.7181 119.06 30.6888 117.939 31.4086C116.816 32.1313 116.506 32.8803 117.006 33.6585Z"
      fill="#121214" />
    <path
      d="M119.566 42.3541L126.962 39.4692L129.107 44.9698L127.293 45.6778L126.049 42.4887L125.107 42.8573L126.272 45.8416L124.458 46.5497L123.296 43.5654L122.281 43.9603L123.606 47.3572L121.725 47.8868L119.569 42.3541H119.566Z"
      fill="#121214" />
    <path
      d="M122.694 51.3773L129.885 47.252L130.5 49.894L125.672 52.3516L131.088 52.4277L131.691 55.0258L123.414 54.4728L122.694 51.3744V51.3773Z"
      fill="#121214" />
    <path
      d="M124.107 58.2677L132.015 57.5859L132.522 63.4668L130.582 63.6336L130.289 60.2221L129.28 60.3099L129.555 63.499L127.615 63.6658L127.34 60.4766L126.254 60.5703L126.568 64.2041L124.613 64.1836L124.104 58.2677H124.107Z"
      fill="#121214" />
    <path
      d="M124.405 70.7869L128.574 68.4521L124.546 68.2327L124.674 65.8804L132.6 66.3134L132.483 68.4785L128.337 70.7928L132.346 71.0122L132.217 73.3646L124.291 72.9316L124.408 70.7899L124.405 70.7869Z"
      fill="#121214" />
    <path
      d="M123.656 76.5802L129.312 77.7271L129.751 75.5591L131.875 75.9892L130.494 82.8005L128.37 82.3704L128.809 80.2023L123.153 79.0554L123.653 76.5831L123.656 76.5802Z"
      fill="#121214" />
    <path
      d="M120.95 85.8578C121.377 84.6729 122.047 83.8771 122.957 83.4675C123.87 83.0578 124.944 83.0783 126.187 83.526C127.003 83.8215 127.653 84.2194 128.141 84.7285C128.627 85.2346 128.929 85.8286 129.04 86.5132C129.151 87.1949 129.063 87.941 128.771 88.7515C128.343 89.9364 127.673 90.7322 126.761 91.1418C125.848 91.5515 124.777 91.531 123.542 91.0863C122.287 90.6328 121.433 89.9481 120.979 89.0323C120.526 88.1166 120.514 87.0574 120.947 85.8608L120.95 85.8578ZM122.977 86.6244C122.661 87.4963 123.133 88.1575 124.388 88.611C125.643 89.0645 126.427 88.8539 126.743 87.982C127.056 87.1101 126.588 86.4489 125.333 85.9954C124.078 85.5419 123.293 85.7525 122.977 86.6244Z"
      fill="#121214" />
    <path
      d="M122.729 100.832C122.419 101.329 122.073 101.733 121.693 102.046C121.31 102.359 120.894 102.567 120.447 102.672C119.996 102.778 119.516 102.772 119.007 102.661C118.495 102.549 117.963 102.318 117.401 101.97C116.839 101.622 116.397 101.236 116.07 100.814C115.742 100.393 115.528 99.9455 115.426 99.4715C115.324 98.9975 115.332 98.5031 115.452 97.9881C115.572 97.4732 115.798 96.9495 116.131 96.4141L117.506 94.2051L124.247 98.3978L122.732 100.835L122.729 100.832ZM117.079 97.0548C116.833 97.4527 116.678 97.8243 116.617 98.1754C116.555 98.5265 116.576 98.8571 116.678 99.1702C116.781 99.4832 116.953 99.7729 117.199 100.036C117.445 100.302 117.752 100.551 118.124 100.782C118.867 101.245 119.546 101.446 120.16 101.394C120.774 101.338 121.304 100.955 121.752 100.235L122.562 98.9332L117.767 95.9518L117.079 97.0577V97.0548Z"
      fill="#121214" />
    <path
      d="M110.429 103.931C110.8 103.498 111.204 103.167 111.646 102.945C112.088 102.722 112.547 102.602 113.03 102.585C113.513 102.567 114.004 102.661 114.51 102.863C115.016 103.065 115.514 103.378 116.011 103.802C116.506 104.226 116.895 104.674 117.173 105.148C117.451 105.619 117.62 106.096 117.682 106.579C117.743 107.061 117.696 107.538 117.541 108.009C117.386 108.48 117.129 108.928 116.766 109.352C116.4 109.779 115.997 110.107 115.552 110.332C115.11 110.558 114.651 110.678 114.171 110.689C113.694 110.701 113.202 110.604 112.696 110.403C112.193 110.201 111.693 109.888 111.195 109.463C110.695 109.033 110.303 108.589 110.022 108.123C109.741 107.658 109.569 107.19 109.501 106.713C109.434 106.236 109.478 105.765 109.633 105.297C109.785 104.829 110.051 104.373 110.426 103.934L110.429 103.931ZM111.315 104.674C110.818 105.253 110.648 105.868 110.8 106.517C110.952 107.164 111.385 107.793 112.094 108.398C112.448 108.703 112.799 108.937 113.147 109.101C113.492 109.264 113.829 109.358 114.15 109.381C114.472 109.405 114.782 109.349 115.078 109.223C115.373 109.098 115.645 108.884 115.897 108.592C116.149 108.299 116.313 107.998 116.394 107.685C116.476 107.374 116.482 107.058 116.412 106.739C116.342 106.421 116.198 106.105 115.979 105.792C115.76 105.478 115.473 105.168 115.119 104.864C114.408 104.255 113.723 103.925 113.062 103.872C112.401 103.82 111.818 104.083 111.318 104.671L111.315 104.674Z"
      fill="#121214" />
    <path
      d="M107.433 118.071L106.38 118.89L99.1201 114.478L100.253 113.597L102.082 114.739L104.513 112.848L103.852 110.8L104.949 109.946L107.433 118.068V118.071ZM103.062 115.4L105.999 117.258L104.914 113.96L103.062 115.4Z"
      fill="#121214" />
    <path
      d="M101.76 122.191L100.677 122.808L94.668 119.633L97.5118 124.616L96.3708 125.266L92.4385 118.369L93.521 117.752L99.5306 120.903L96.6985 115.938L97.8278 115.294L101.763 122.191H101.76Z"
      fill="#121214" />
    <path
      d="M87.1369 120.403C87.6694 120.198 88.1814 120.102 88.6759 120.113C89.1703 120.125 89.6326 120.239 90.0656 120.456C90.4987 120.672 90.8878 120.988 91.236 121.406C91.5841 121.825 91.8738 122.337 92.1079 122.945C92.3419 123.554 92.4706 124.133 92.4882 124.68C92.5087 125.228 92.4297 125.728 92.2571 126.181C92.0815 126.635 91.8153 127.03 91.4525 127.372C91.0926 127.714 90.6508 127.984 90.1329 128.183C89.6063 128.385 89.0972 128.481 88.5998 128.469C88.1024 128.458 87.6431 128.344 87.2159 128.127C86.7917 127.911 86.4055 127.592 86.0573 127.173C85.7091 126.755 85.4195 126.243 85.1854 125.634C84.9484 125.02 84.8167 124.441 84.7904 123.896C84.7641 123.355 84.8372 122.858 85.004 122.41C85.1737 121.959 85.4341 121.564 85.794 121.225C86.1509 120.886 86.6015 120.611 87.1398 120.403H87.1369ZM87.5641 121.477C86.8531 121.752 86.4084 122.208 86.2358 122.852C86.0631 123.495 86.1421 124.25 86.4786 125.122C86.6454 125.558 86.8443 125.93 87.0696 126.24C87.2949 126.55 87.5465 126.79 87.8186 126.965C88.0907 127.138 88.3892 127.238 88.7081 127.267C89.027 127.293 89.3693 127.241 89.7292 127.1C90.089 126.963 90.3787 126.775 90.5981 126.538C90.8176 126.304 90.9726 126.029 91.0633 125.716C91.154 125.403 91.1774 125.058 91.1336 124.678C91.0897 124.297 90.9843 123.888 90.8176 123.452C90.4811 122.58 90.0364 121.962 89.4805 121.602C88.9246 121.24 88.2867 121.199 87.567 121.474L87.5641 121.477Z"
      fill="#121214" />
    <path
      d="M69.2537 129.201L69.0928 128.001L80.1114 126.518L80.2723 127.72L69.2537 129.204V129.201Z"
      fill="#121214" />
    <path
      d="M64.2389 124.496L63.5542 132.405L60.4851 132.139C59.3908 132.045 58.595 131.744 58.0976 131.24C57.5973 130.737 57.3895 130.023 57.4685 129.099C57.6295 127.244 58.791 126.413 60.9532 126.6L61.6173 126.658L61.8221 124.289L64.2359 124.496H64.2389ZM60.7747 128.549C60.4265 128.519 60.172 128.56 60.0111 128.671C59.8502 128.783 59.7536 128.987 59.7302 129.283C59.7039 129.578 59.7624 129.795 59.9028 129.935C60.0433 130.073 60.2861 130.158 60.6343 130.187L61.3101 130.246L61.4506 128.607L60.7747 128.549Z"
      fill="#121214" />
    <path
      d="M51.9044 122.676L52.5685 125.441L53.4346 125.64L54.008 123.159L56.3165 123.691L54.5318 131.427L51.2168 130.664C50.184 130.427 49.4526 130.032 49.0195 129.485C48.5865 128.935 48.4666 128.241 48.6597 127.404C48.8908 126.407 49.4408 125.751 50.3127 125.435L49.394 122.097L51.9073 122.676H51.9044ZM52.197 127.24C51.8429 127.159 51.5708 127.164 51.3777 127.258C51.1846 127.352 51.0559 127.542 50.9886 127.832C50.9213 128.121 50.9535 128.349 51.0881 128.516C51.2227 128.683 51.4626 128.809 51.8166 128.891L52.6388 129.081L53.0191 127.434L52.197 127.243V127.24Z"
      fill="#121214" />
    <path d="M48.1466 121.585L45.5134 129.072L43.1318 128.235L45.765 120.748L48.1466 121.585Z"
      fill="#121214" />
    <path
      d="M38.2259 117.299L36.4499 120.81L39.2762 117.828L40.8649 118.63L40.1423 122.673L41.9182 119.159L43.9312 120.178L40.35 127.261L37.7694 125.956L38.6355 120.988L35.1479 124.634L32.5791 123.335L36.1602 116.251L38.2229 117.296L38.2259 117.299Z"
      fill="#121214" />
    <path
      d="M34.6272 115.189L29.9898 121.632L25.1973 118.182L26.3325 116.602L29.112 118.603L29.7031 117.781L27.1049 115.912L28.2402 114.332L30.8383 116.201L31.4732 115.318L28.5123 113.188L29.8025 111.719L34.6213 115.186L34.6272 115.189Z"
      fill="#121214" />
    <path d="M28.5003 110.552L23.2192 116.479L21.335 114.8L26.6131 108.872L28.4973 110.552H28.5003Z"
      fill="#121214" />
    <path
      d="M22.1282 104.212L21.0837 106.856L21.6776 107.518L23.5706 105.815L25.1564 107.573L19.258 112.887L16.9817 110.359C16.2736 109.572 15.8991 108.828 15.8582 108.132C15.8172 107.436 16.1186 106.798 16.7564 106.222C17.5171 105.537 18.3451 105.315 19.2404 105.557L20.402 102.295L22.1282 104.212ZM19.7495 108.118C19.5067 107.848 19.2784 107.696 19.0678 107.661C18.8571 107.626 18.6406 107.708 18.4212 107.907C18.2018 108.106 18.0964 108.311 18.1081 108.524C18.1198 108.738 18.2486 108.978 18.4914 109.25L19.0561 109.879L20.3113 108.747L19.7466 108.118H19.7495Z"
      fill="#121214" />
    <path
      d="M17.8003 98.1345C18.4937 99.1878 18.7307 100.2 18.5113 101.174C18.2919 102.149 17.6336 103 16.5305 103.726C15.8079 104.203 15.0969 104.486 14.3976 104.571C13.7013 104.659 13.0459 104.542 12.4315 104.223C11.8171 103.904 11.2729 103.386 10.8018 102.67C10.1084 101.619 9.87142 100.604 10.0908 99.6296C10.3103 98.6553 10.9656 97.8068 12.0628 97.0842C13.1776 96.3498 14.2367 96.0748 15.2432 96.2591C16.2497 96.4434 17.1011 97.0695 17.8033 98.1345H17.8003ZM15.9717 99.299C15.4626 98.5266 14.6492 98.5061 13.5345 99.2405C12.4198 99.9749 12.1184 100.73 12.6275 101.502C13.1366 102.275 13.95 102.295 15.0647 101.561C16.1794 100.826 16.4808 100.071 15.9717 99.299Z"
      fill="#121214" />
    <path
      d="M13.3184 90.6446L5.95703 93.6172L3.74805 88.143L5.55327 87.4145L6.83477 90.589L7.77396 90.2115L6.57437 87.2418L8.3796 86.5133L9.57918 89.483L10.5886 89.0763L9.22223 85.6941L11.0977 85.1411L13.3213 90.6475L13.3184 90.6446Z"
      fill="#121214" />
    <path
      d="M10.0788 81.6476L2.93694 85.8579L2.29034 83.2217L7.08866 80.7085L1.67006 80.6968L1.03516 78.1045L9.31812 78.5609L10.073 81.6506L10.0788 81.6476Z"
      fill="#121214" />
    <path
      d="M8.58739 74.7778L0.687717 75.5502L0.114258 69.6752L2.05114 69.485L2.38468 72.8936L3.39116 72.7941L3.0781 69.6079L5.01498 69.4177L5.32804 72.6039L6.41352 72.4986L6.0595 68.8677H8.01394L8.59032 74.7749L8.58739 74.7778Z"
      fill="#121214" />
    <path
      d="M8.14252 62.2701L3.99958 64.6517L8.03134 64.8244L7.93186 67.1796L0 66.8403L0.0936257 64.6752L4.21316 62.314L0.20188 62.1414L0.301358 59.7861L8.23322 60.1255L8.14252 62.2701Z"
      fill="#121214" />
    <path
      d="M8.82114 56.4594L3.15385 55.3798L2.74131 57.5536L0.611328 57.147L1.91039 50.321L4.04037 50.7277L3.62783 52.9016L9.29512 53.9812L8.82407 56.4594H8.82114Z"
      fill="#121214" />
    <path
      d="M11.4227 47.1495C11.0101 48.3403 10.3489 49.1449 9.44191 49.5633C8.53491 49.9817 7.45821 49.9758 6.21182 49.5428C5.39259 49.259 4.73721 48.864 4.24275 48.3637C3.74829 47.8634 3.444 47.2724 3.32405 46.5906C3.20409 45.9089 3.28601 45.1628 3.56689 44.3495C3.97943 43.1587 4.64066 42.3541 5.54766 41.9357C6.45466 41.5173 7.52843 41.5231 8.76605 41.9532C10.0271 42.3921 10.8873 43.065 11.3525 43.975C11.8177 44.8849 11.8411 45.944 11.4227 47.1465V47.1495ZM9.38632 46.4063C9.6906 45.5315 9.21369 44.8732 7.95267 44.4373C6.69165 43.9984 5.91046 44.2178 5.60617 45.0926C5.30189 45.9674 5.7788 46.6258 7.03982 47.0617C8.30084 47.5006 9.08203 47.2811 9.38632 46.4063Z"
      fill="#121214" />
    <path
      d="M9.46776 32.1986C9.77204 31.6983 10.1115 31.2887 10.4918 30.9727C10.8722 30.6567 11.2818 30.4431 11.7324 30.3319C12.18 30.2208 12.6599 30.2208 13.1719 30.3261C13.6839 30.4314 14.2222 30.6567 14.7869 30.999C15.3516 31.3413 15.7992 31.7217 16.1299 32.1372C16.4605 32.5555 16.6828 33.0003 16.7882 33.4743C16.8964 33.9482 16.8935 34.4427 16.7794 34.9576C16.6653 35.4726 16.4458 36.0021 16.1211 36.5405L14.7723 38.767L7.98145 34.6533L9.46776 32.1986ZM15.1614 35.9085C15.4043 35.5077 15.5535 35.1332 15.6091 34.7821C15.6647 34.431 15.6412 34.1004 15.5359 33.7873C15.4306 33.4772 15.2521 33.1904 15.0034 32.9271C14.7547 32.6638 14.4446 32.421 14.0701 32.1927C13.3211 31.7392 12.6423 31.5432 12.0279 31.6047C11.4135 31.6661 10.8897 32.0582 10.4509 32.7808L9.655 34.0945L14.4856 37.0203L15.1585 35.9085H15.1614Z"
      fill="#121214" />
    <path
      d="M21.7336 28.9537C21.3678 29.3925 20.967 29.7232 20.5281 29.9543C20.0893 30.1854 19.6299 30.3083 19.1501 30.3288C18.6673 30.3522 18.1728 30.2644 17.6667 30.0655C17.1605 29.8695 16.6573 29.5622 16.157 29.1439C15.6567 28.7255 15.2646 28.2807 14.9808 27.8126C14.697 27.3445 14.5214 26.8676 14.4541 26.3877C14.3869 25.9079 14.4278 25.431 14.58 24.957C14.7292 24.483 14.9837 24.0325 15.3407 23.6053C15.7035 23.1723 16.1014 22.8417 16.5432 22.6105C16.982 22.3794 17.4414 22.2565 17.9183 22.239C18.3952 22.2214 18.8867 22.3121 19.3958 22.5081C19.902 22.7042 20.4082 23.0114 20.9085 23.4298C21.4146 23.854 21.8096 24.2958 22.0964 24.7551C22.3831 25.2174 22.5616 25.6856 22.6318 26.1595C22.702 26.6335 22.664 27.1075 22.5177 27.5786C22.3714 28.0496 22.111 28.506 21.7394 28.9508L21.7336 28.9537ZM20.8383 28.2193C21.3269 27.6341 21.4936 27.0168 21.3327 26.3702C21.1718 25.7236 20.7329 25.1004 20.0161 24.5035C19.6592 24.2051 19.3051 23.974 18.957 23.813C18.6088 23.6521 18.2723 23.5614 17.9505 23.5439C17.6286 23.5263 17.3185 23.5819 17.0259 23.7136C16.7334 23.8452 16.4613 24.0588 16.2155 24.3543C15.9697 24.6498 15.8059 24.9541 15.7298 25.2672C15.6537 25.5802 15.6508 25.8933 15.724 26.2122C15.7971 26.5282 15.9434 26.8442 16.1687 27.1543C16.394 27.4644 16.6807 27.7717 17.0406 28.0701C17.7574 28.6699 18.4449 28.9917 19.1091 29.0385C19.7703 29.0853 20.3496 28.8132 20.8441 28.2193H20.8383Z"
      fill="#121214" />
    <path
      d="M24.5654 14.7784L25.6099 13.9475L32.9215 18.2748L31.8009 19.1671L29.9576 18.0495L27.5497 19.9688L28.2373 22.0081L27.1489 22.8741L24.5712 14.7814L24.5654 14.7784ZM28.9687 17.4L26.0107 15.5772L27.1342 18.8629L28.9687 17.4029V17.4Z"
      fill="#121214" />
    <path
      d="M30.1855 10.5972L31.2593 9.9681L37.307 13.0724L34.4046 8.12192L35.5368 7.45776L39.5511 14.3071L38.4773 14.9361L32.4326 11.8553L35.3233 16.7852L34.1998 17.4435L30.1855 10.5942V10.5972Z"
      fill="#121214" />
    <path
      d="M44.8322 12.2125C44.3026 12.4231 43.7906 12.5255 43.2961 12.5197C42.8017 12.5138 42.3394 12.4056 41.9035 12.1949C41.4675 11.9842 41.0755 11.6741 40.7214 11.2586C40.3674 10.8432 40.0719 10.3341 39.832 9.72845C39.5921 9.1228 39.4575 8.54642 39.4282 7.99637C39.4019 7.44924 39.4721 6.94893 39.6418 6.49251C39.8115 6.03901 40.0748 5.63817 40.4318 5.29293C40.7887 4.94768 41.2247 4.67265 41.7425 4.46492C42.2663 4.25719 42.7754 4.15479 43.2727 4.16064C43.7701 4.16649 44.2324 4.27474 44.6596 4.48833C45.0867 4.70191 45.4759 5.01497 45.8299 5.42751C46.181 5.84298 46.4794 6.35207 46.7193 6.95771C46.9622 7.5692 47.1026 8.14851 47.1348 8.68979C47.167 9.23106 47.1026 9.72845 46.9388 10.179C46.7749 10.6296 46.5175 11.0304 46.1634 11.3727C45.8094 11.7151 45.3647 11.9959 44.8263 12.2095L44.8322 12.2125ZM44.3933 11.1416C45.1014 10.8578 45.5402 10.3955 45.707 9.75185C45.8738 9.10818 45.7831 8.35039 45.4378 7.48435C45.2652 7.05133 45.0633 6.67976 44.8322 6.37255C44.6011 6.06534 44.3494 5.82542 44.0744 5.65572C43.7994 5.48603 43.501 5.38948 43.182 5.36607C42.8602 5.34266 42.5208 5.40118 42.1639 5.54454C41.8069 5.68791 41.5173 5.87809 41.3007 6.11508C41.0842 6.35207 40.9321 6.63002 40.8472 6.94308C40.7595 7.25614 40.7419 7.60431 40.7887 7.98467C40.8355 8.36502 40.9467 8.77171 41.1193 9.20473C41.4646 10.0708 41.9181 10.6852 42.4769 11.0392C43.0357 11.3932 43.6765 11.4283 44.3904 11.1445L44.3933 11.1416Z"
      fill="#121214" />
    <path d="M62.6124 3.20679L62.7879 4.40637L51.7869 6.01849L51.6113 4.81891L62.6124 3.20679Z"
      fill="#121214" />
  </g>
  <defs>
    <clipPath id="clip0_3222_1146">
      <rect width="133" height="133" fill="white" />
    </clipPath>
  </defs>
</svg>