<svg width="217" height="29" viewBox="0 0 217 29" fill="none" xmlns="http://www.w3.org/2000/svg">
  <g clip-path="url(#clip0_3227_1178)">
    <path
      d="M15.863 25.4741C15.596 25.2241 15.318 24.9721 15.053 24.6941C14.84 24.9031 14.641 25.0981 14.43 25.2931C11.8 27.7011 9.089 28.7041 7.482 27.7291C5.927 26.7961 5.437 24.0401 6.059 20.5731C6.126 20.1971 6.206 19.8211 6.299 19.4451C6.019 19.3581 5.754 19.2781 5.488 19.1831C2.178 17.9831 0 16.0351 0 14.0851C0 12.2061 2.033 10.3821 5.208 9.21311C5.564 9.08711 5.938 8.96311 6.324 8.85011C6.236 8.48811 6.165 8.14011 6.099 7.80311C5.434 4.28311 5.899 1.47211 7.467 0.525114C9.1 -0.477886 11.812 0.595114 14.534 3.11411C14.694 3.26711 14.854 3.43411 15.026 3.60111C15.278 3.35111 15.517 3.10011 15.77 2.87711C18.347 0.522115 20.91 -0.463886 22.479 0.483114C24.113 1.45711 24.592 4.46411 23.861 8.18211C23.821 8.41911 23.772 8.64211 23.715 8.88011C24.048 8.97811 24.379 9.08911 24.685 9.20011C27.927 10.3701 30.026 12.1941 30 14.1151C30 16.0781 27.754 18.0131 24.31 19.2101C24.125 19.2661 23.94 19.3361 23.753 19.3911C23.833 19.6701 23.885 19.9481 23.939 20.2261C24.629 23.8331 24.098 26.7841 22.491 27.7591C22.068 28.0091 21.583 28.1351 21.091 28.1251C19.618 28.1231 17.747 27.1701 15.863 25.4741ZM18.467 20.3641C17.7033 21.5311 16.8649 22.6474 15.957 23.7061C16.209 23.9681 16.461 24.2081 16.714 24.4301C18.906 26.4071 20.925 27.1451 21.869 26.5751C22.1566 26.3323 22.3923 26.0341 22.562 25.6981C22.731 25.3631 22.829 24.9981 22.852 24.6261C23.0439 23.2442 22.9897 21.8392 22.692 20.4761C22.6521 20.2189 22.5991 19.9639 22.533 19.7121C21.1937 20.0196 19.8353 20.2374 18.467 20.3641ZM7.333 20.8101C6.789 23.7781 7.187 25.9891 8.133 26.5601C8.46863 26.6978 8.83005 26.7613 9.19252 26.7463C9.55498 26.7313 9.90991 26.6381 10.233 26.4731C11.4824 25.9585 12.6232 25.212 13.595 24.2731C13.794 24.1061 13.979 23.9111 14.179 23.7161C13.2511 22.6573 12.3904 21.5415 11.602 20.3751C10.2387 20.2633 8.88464 20.0592 7.549 19.7641C7.467 20.1281 7.399 20.4751 7.333 20.8101ZM15.066 22.7591C15.6873 22.0318 16.2727 21.2746 16.82 20.4901C15.634 20.5454 14.446 20.5454 13.26 20.4901C13.857 21.3101 14.455 22.0771 15.066 22.7591ZM12.276 9.17111C11.7551 9.95771 11.2673 10.7657 10.814 11.5931C10.3557 12.4196 9.93036 13.2639 9.539 14.1241C9.938 14.9591 10.363 15.8091 10.828 16.6731C11.292 17.5081 11.784 18.3311 12.288 19.1081C13.165 19.1641 14.082 19.1961 15.012 19.1961C15.942 19.1961 16.872 19.1681 17.762 19.0991C18.241 18.3341 18.732 17.5111 19.198 16.6621C19.664 15.8131 20.101 14.9501 20.487 14.1151C20.0829 13.2623 19.6531 12.4219 19.198 11.5951C18.7441 10.7706 18.2612 9.9624 17.75 9.17211C16.8395 9.0991 15.9264 9.06174 15.013 9.06011C14.083 9.06011 13.166 9.10011 12.275 9.17011L12.276 9.17111ZM7.89 18.4841C8.802 18.6891 9.725 18.8421 10.654 18.9441C10.3287 18.4123 10.0143 17.8738 9.711 17.3291C9.418 16.7861 9.126 16.2431 8.861 15.7001C8.475 16.6471 8.155 17.5811 7.89 18.4841ZM20.313 17.3151C20.0159 17.8536 19.7102 18.3874 19.396 18.9161C20.3391 18.8005 21.2751 18.6336 22.2 18.4161C21.9111 17.4757 21.574 16.5508 21.19 15.6451C20.91 16.2011 20.618 16.7581 20.313 17.3151ZM5.62 10.4931C2.91 11.4961 1.276 12.9561 1.276 14.0991C1.327 14.4671 1.452 14.8211 1.644 15.1411C1.835 15.4611 2.089 15.7411 2.391 15.9651C3.43195 16.8234 4.62121 17.484 5.9 17.9141C6.139 18.0011 6.391 18.0671 6.644 18.1511C7.052 16.7811 7.544 15.4381 8.118 14.1271C7.54331 12.8398 7.05523 11.5155 6.657 10.1631C6.30616 10.255 5.95936 10.3652 5.62 10.4931ZM21.922 14.0991C22.5108 15.3921 23.0152 16.7219 23.432 18.0801C23.606 18.0251 23.779 17.9691 23.938 17.9131C26.9 16.8831 28.738 15.3091 28.748 14.0841C28.748 12.9431 27.047 11.4661 24.27 10.4641C23.99 10.3671 23.686 10.2701 23.381 10.1721C22.978 11.5107 22.4904 12.8224 21.921 14.0991H21.922ZM20.302 10.8971C20.607 11.4541 20.899 11.9971 21.164 12.5401C21.534 11.6531 21.853 10.7471 22.121 9.82511C21.2182 9.61008 20.3045 9.44317 19.384 9.32511C19.703 9.83811 20.008 10.3551 20.3 10.8971H20.302ZM7.904 9.81411C8.17 10.7051 8.489 11.6101 8.86 12.5421C9.13319 11.9942 9.41657 11.4515 9.71 10.9141C10.003 10.3711 10.308 9.84211 10.627 9.32611C9.671 9.44911 8.767 9.61611 7.904 9.81411ZM16.606 3.89711C16.38 4.10511 16.154 4.32811 15.928 4.55111C16.8493 5.5968 17.697 6.70513 18.465 7.86811C19.8167 7.99597 21.1577 8.2192 22.478 8.53611C22.531 8.32811 22.567 8.11811 22.611 7.91011C23.234 4.70811 22.851 2.25711 21.841 1.64511C21.6186 1.52299 21.3675 1.4629 21.114 1.47111C20.028 1.46511 18.362 2.29511 16.606 3.89411V3.89711ZM8.104 1.68011C7.161 2.25011 6.788 4.53411 7.347 7.54111C7.413 7.86111 7.48 8.18111 7.559 8.51511C8.88098 8.20988 10.2215 7.99141 11.572 7.86111C12.3426 6.69664 13.1948 5.5882 14.122 4.54411C13.977 4.39111 13.817 4.25211 13.671 4.11211C11.822 2.39611 10.044 1.49011 8.883 1.49011C8.61049 1.48069 8.34064 1.54642 8.103 1.68011H8.104ZM16.793 7.75011C16.2447 6.97109 15.6538 6.22295 15.023 5.50911C14.3951 6.22741 13.8015 6.97491 13.244 7.74911C14.4266 7.69214 15.6114 7.69214 16.794 7.74911L16.793 7.75011ZM12.355 14.1551C12.3427 13.7969 12.4026 13.4398 12.531 13.1051C12.659 12.7701 12.853 12.4631 13.103 12.2021C13.352 11.9401 13.651 11.7301 13.983 11.5821C14.316 11.4351 14.674 11.3531 15.039 11.3421C15.774 11.3671 16.469 11.6771 16.973 12.2041C17.2213 12.463 17.4155 12.7688 17.5443 13.1036C17.673 13.4384 17.7338 13.7956 17.723 14.1541C17.7343 14.5133 17.6738 14.8712 17.545 15.2067C17.4163 15.5423 17.2218 15.8487 16.973 16.1081C16.47 16.6361 15.774 16.9461 15.038 16.9701C14.6738 16.9592 14.3151 16.8777 13.982 16.7301C13.6509 16.583 13.352 16.3723 13.102 16.1101C12.8531 15.8495 12.6586 15.5418 12.53 15.2051C12.4019 14.8704 12.3424 14.5133 12.355 14.1551ZM57.82 0.301114C58.1788 0.103272 58.5818 -0.000488281 58.9915 -0.000488281C59.4012 -0.000488281 59.8042 0.103272 60.163 0.301114L70.868 6.27011C71.204 6.45811 71.483 6.73011 71.678 7.06011C71.874 7.38811 71.978 7.76211 71.981 8.14311V20.1171C71.9738 20.5127 71.8591 20.8988 71.649 21.2341C71.439 21.5701 71.139 21.8441 70.785 22.0271C67.229 24.0061 63.673 25.9851 60.118 27.9661C59.7526 28.1655 59.3409 28.2646 58.9247 28.2532C58.5086 28.2417 58.1029 28.1203 57.749 27.9011C56.683 27.2911 55.616 26.6821 54.549 26.0751C54.3149 25.9707 54.1046 25.8197 53.931 25.6311C54.067 25.4531 54.311 25.4271 54.508 25.3481C54.9457 25.1935 55.3682 24.9987 55.77 24.7661C55.8207 24.7366 55.879 24.7227 55.9375 24.7263C55.9961 24.7298 56.0523 24.7507 56.099 24.7861C57.011 25.3021 57.914 25.8331 58.829 26.3441C59.024 26.4541 59.222 26.3071 59.389 26.2151C62.879 24.2691 66.369 22.3251 69.861 20.3821C69.9226 20.3514 69.9735 20.303 70.0074 20.2432C70.0412 20.1833 70.0564 20.1147 70.051 20.0461V8.19811C70.0579 8.12076 70.04 8.04322 69.9999 7.9767C69.9598 7.91019 69.8996 7.85815 69.828 7.82811C66.283 5.85811 62.74 3.88811 59.198 1.91711C59.1364 1.87559 59.0638 1.8534 58.9895 1.8534C58.9152 1.8534 58.8426 1.87559 58.781 1.91711C55.236 3.88711 51.693 5.85911 48.152 7.83111C48.0809 7.86139 48.0211 7.91315 47.9809 7.97915C47.9407 8.04515 47.9222 8.12207 47.928 8.19911V20.0461C47.9216 20.1148 47.9367 20.1838 47.9713 20.2434C48.0059 20.3031 48.0582 20.3505 48.121 20.3791C49.066 20.9081 50.013 21.4351 50.959 21.9611C51.222 22.1216 51.5157 22.2255 51.8212 22.2659C52.1267 22.3064 52.4372 22.2826 52.733 22.1961C52.99 22.1001 53.211 21.9301 53.366 21.7081C53.522 21.4851 53.606 21.2211 53.605 20.9511C53.609 17.0251 53.605 13.0991 53.605 9.17411C53.6032 9.11088 53.6219 9.04876 53.6583 8.99702C53.6947 8.94529 53.7469 8.90674 53.807 8.88711C53.8468 8.87356 53.8891 8.86845 53.931 8.87211C54.381 8.87211 54.841 8.86611 55.295 8.87211C55.3387 8.87424 55.3816 8.88537 55.4208 8.90481C55.46 8.92426 55.4948 8.9516 55.523 8.98511C55.5508 9.01855 55.5712 9.05748 55.5829 9.09936C55.5947 9.14123 55.5974 9.18511 55.591 9.22811C55.591 13.1781 55.596 17.1301 55.591 21.0801C55.6212 21.617 55.505 22.152 55.255 22.6281C55.0032 23.1069 54.6275 23.5092 54.167 23.7931C53.5493 24.0773 52.8745 24.2156 52.1948 24.1974C51.5151 24.1792 50.8486 24.0049 50.247 23.6881C49.207 23.1751 48.215 22.5711 47.194 22.0221C46.8408 21.8407 46.5431 21.5674 46.332 21.2311C46.1218 20.8963 46.007 20.5104 46 20.1151V8.14311C46.003 7.75311 46.112 7.37311 46.315 7.03911C46.517 6.70511 46.807 6.43111 47.154 6.24611C50.71 4.26511 54.266 2.28511 57.82 0.301114Z"
      fill="#E1E1E6" />
    <path
      d="M60.9221 8.59398C62.4921 8.39398 64.0901 8.63398 65.5281 9.28998C66.0491 9.59698 66.4801 10.033 66.7781 10.554C67.0761 11.076 67.2311 11.666 67.2271 12.265C67.2056 12.3399 67.1583 12.4049 67.0935 12.4483C67.0287 12.4916 66.9506 12.5107 66.8731 12.502C66.4221 12.502 65.9711 12.508 65.5211 12.502C65.4347 12.4964 65.3535 12.459 65.2931 12.397C65.233 12.336 65.198 12.2546 65.1951 12.169C65.144 11.8783 65.0296 11.6025 64.8601 11.361C64.6897 11.1183 64.4686 10.9156 64.2121 10.767C63.3551 10.4316 62.4314 10.3015 61.5151 10.387C60.8407 10.3657 60.1732 10.5292 59.5851 10.86C59.3829 11.0123 59.2345 11.2251 59.1613 11.4675C59.0881 11.7098 59.094 11.9692 59.1781 12.208C59.3231 12.548 59.7191 12.654 60.0441 12.758C61.9131 13.24 63.8941 13.192 65.7261 13.825C66.1201 13.933 66.4831 14.128 66.7891 14.396C67.0941 14.664 67.3331 14.998 67.4871 15.371C67.6715 15.9006 67.7162 16.4689 67.6169 17.0208C67.5176 17.5728 67.2776 18.0898 66.9201 18.522C66.2713 19.1857 65.4329 19.6321 64.5201 19.8C63.3271 20.039 62.1031 20.09 60.8941 19.952C59.7358 19.8876 58.6239 19.4749 57.7041 18.768C57.3413 18.4404 57.0558 18.0363 56.8681 17.585C56.6814 17.1352 56.5977 16.6493 56.6231 16.163C56.6273 16.1239 56.6391 16.086 56.658 16.0515C56.6769 16.017 56.7024 15.9866 56.7331 15.962C56.7951 15.9122 56.874 15.8886 56.9531 15.896C57.4041 15.896 57.8591 15.891 58.3131 15.896C58.3973 15.8946 58.4788 15.9262 58.5401 15.984C58.5701 16.0125 58.5942 16.0468 58.6108 16.0847C58.6275 16.1227 58.6364 16.1635 58.6371 16.205C58.6594 16.4824 58.739 16.7522 58.8708 16.9973C59.0027 17.2424 59.1839 17.4575 59.4031 17.629C60.3753 18.1004 61.4586 18.2949 62.5341 18.191C63.4341 18.258 64.3341 18.039 65.1011 17.568C65.2763 17.3987 65.4042 17.1865 65.4719 16.9524C65.5396 16.7184 65.5449 16.4707 65.4871 16.234C65.3771 15.839 64.9571 15.654 64.5981 15.534C62.7531 14.958 60.7501 15.167 58.9201 14.516C58.5376 14.4061 58.1832 14.2151 57.8811 13.956C57.5806 13.6976 57.34 13.3768 57.1761 13.016C56.9657 12.4793 56.9124 11.8938 57.0226 11.328C57.1327 10.7622 57.4017 10.2395 57.7981 9.82098C58.6656 9.06669 59.7644 8.63071 60.9131 8.58498L60.9231 8.59498L60.9221 8.59398ZM113.135 3.69598C112.678 3.64987 112.219 3.62651 111.759 3.62598C111.483 3.62598 111.23 3.63298 111.04 3.65098C109.56 3.78298 108.177 4.44598 107.23 5.47698C106.732 6.03471 106.353 6.68845 106.117 7.39798C106.023 7.69398 105.967 7.86798 105.935 8.04698C105.887 8.30798 105.888 8.57898 105.888 9.25998C105.89 10.723 105.962 11.086 106.448 12.059C106.936 13.037 107.679 13.836 108.753 14.536C109.223 14.842 110.427 15.458 111.411 15.894C113.552 16.845 114.229 17.284 114.543 17.924L114.673 18.187V18.741C114.673 19.274 114.671 19.301 114.565 19.521C114.324 20.031 113.754 20.448 113.024 20.649C112.748 20.725 112.621 20.736 112.004 20.736C111.401 20.736 111.254 20.723 110.977 20.652C110.494 20.527 110.087 20.354 109.769 20.138C109.379 19.873 108.613 19.08 108.301 18.618C108.164 18.415 108.026 18.248 107.995 18.248C107.943 18.248 105.301 19.797 104.84 20.097C104.685 20.198 104.646 20.244 104.646 20.326C104.646 20.494 105.263 21.45 105.746 22.031C106.731 23.215 108.707 24.259 110.457 24.52C111.148 24.623 112.297 24.656 113.1 24.596C113.653 24.5513 114.199 24.446 114.729 24.282C116.796 23.661 118.206 22.34 118.729 20.537C118.942 19.802 119.028 18.897 118.957 18.134C118.813 16.567 118.343 15.46 117.417 14.501C116.556 13.611 115.374 12.893 113.042 11.845C111.02 10.936 110.492 10.583 110.201 9.94498C109.949 9.39298 109.997 8.63498 110.314 8.16298C110.684 7.61198 111.44 7.33898 112.283 7.45298C113.067 7.55998 113.574 7.87798 114.071 8.57598C114.329 8.93798 114.508 9.12698 114.593 9.12698C114.678 9.12698 115.043 8.89698 116.175 8.12598C117.327 7.34198 117.69 7.07598 117.714 6.99598C117.753 6.87098 117.572 6.57998 117.044 5.91598C115.983 4.58198 114.736 3.87398 113.135 3.69598ZM103.532 3.87998C103.506 3.86398 101.871 3.85398 99.0201 3.85198L95.7771 3.85298C89.5211 3.85998 88.0691 3.86998 88.0291 3.91198C87.9911 3.95098 87.9811 4.34398 87.9811 5.81198V7.66198L93.6711 7.68398L93.6731 15.94C93.6731 20.481 93.6831 24.235 93.6971 24.282L93.7181 24.368H95.7861C97.6371 24.368 97.8561 24.363 97.8761 24.308C97.8881 24.275 97.8971 20.521 97.8971 15.966V7.68398L103.588 7.66398V5.78998C103.588 4.16598 103.582 3.91198 103.532 3.87998ZM146.852 11.023C147.057 10.708 147.282 10.668 147.464 10.668C147.646 10.668 147.948 10.708 148.154 11.023C149.768 13.33 152.433 17.926 154.399 21.318C155.682 23.528 156.667 25.228 156.869 25.443C157.627 26.255 158.667 25.749 159.272 24.828C159.867 23.923 160.031 23.286 160.031 22.608C160.031 22.145 151.41 5.46398 150.542 4.07498C149.708 2.73998 149.435 2.40198 148.007 2.40198H146.937C145.513 2.40198 145.307 2.73998 144.471 4.07498C143.604 5.46398 134.981 22.145 134.981 22.607C134.981 23.287 135.147 23.923 135.743 24.828C136.348 25.748 137.388 26.255 138.146 25.442C138.347 25.226 139.332 23.529 140.615 21.317C142.581 17.927 145.237 13.33 146.853 11.022L146.852 11.023ZM196.031 2.12598C190.698 2.12598 187.365 4.79298 186.031 10.126C188.031 7.45898 190.365 6.45898 193.031 7.12598C194.553 7.50598 195.64 8.60998 196.844 9.83198C198.805 11.822 201.074 14.126 206.031 14.126C211.365 14.126 214.698 11.459 216.031 6.12598C214.031 8.79298 211.698 9.79298 209.031 9.12598C207.51 8.74598 206.422 7.64198 205.219 6.41998C203.258 4.42998 200.988 2.12598 196.031 2.12598ZM186.031 14.126C180.698 14.126 177.365 16.793 176.031 22.126C178.031 19.459 180.365 18.459 183.031 19.126C184.553 19.506 185.64 20.61 186.844 21.832C188.805 23.822 191.074 26.126 196.031 26.126C201.365 26.126 204.698 23.459 206.031 18.126C204.031 20.793 201.698 21.793 199.031 21.126C197.51 20.746 196.422 19.642 195.219 18.42C193.258 16.43 190.988 14.126 186.031 14.126Z"
      fill="#E1E1E6" />
  </g>
  <defs>
    <clipPath id="clip0_3227_1178">
      <rect width="217" height="29" fill="white" />
    </clipPath>
  </defs>
</svg>