<svg width="230" height="32" viewBox="0 0 230 32" fill="none" xmlns="http://www.w3.org/2000/svg">
  <path fill-rule="evenodd" clip-rule="evenodd"
    d="M84.8506 8.51811C84.8506 5.81464 85.8047 3.71853 87.7131 2.23146C89.6197 0.744383 92.5279 0 96.4325 0H108.737V9.91552H101.526L100.039 0.901718C99.0175 0.901718 98.1615 1.03706 97.4696 1.30775C96.7776 1.57843 96.2227 1.92355 95.8015 2.34481C95.3802 2.76606 95.0808 3.2313 94.8998 3.74222C94.7187 4.25313 94.6291 4.74882 94.6291 5.22929C94.6291 6.31034 94.9962 7.27972 95.7338 8.13577C96.4697 8.99181 97.3934 9.81063 98.5049 10.5922C99.6164 11.3738 100.826 12.1622 102.132 12.959C103.44 13.7559 104.648 14.6423 105.761 15.6185C106.872 16.5947 107.796 17.7078 108.532 18.953C109.268 20.1998 109.637 21.6649 109.637 23.3465C109.637 25.9011 108.683 27.9059 106.774 29.3625C104.866 30.8208 101.96 31.5483 98.0532 31.5483H84.8506V21.6328H92.0609L93.548 30.6466C95.8302 30.6466 97.4526 30.3082 98.4153 29.6332C99.3762 28.9565 99.8567 27.9583 99.8567 26.6354C99.8567 25.3124 99.4879 24.255 98.7519 23.3685C98.016 22.482 97.0906 21.6565 95.9808 20.8901C94.8693 20.1237 93.6597 19.381 92.3536 18.6586C91.0476 17.9362 89.8363 17.1191 88.7248 16.2022C87.6133 15.2852 86.6895 14.2194 85.9536 13.003C85.2177 11.7849 84.8506 10.2911 84.8506 8.51811ZM114.776 31.5483V0H137.311V9.91552H130.101L127.712 0.901718H124.692V13.1603H133.706V14.0621H124.692V30.6466H127.712L130.101 21.6328H137.311V31.5483H114.776ZM170.209 9.91552V0H141.41V9.91552H148.17L150.559 0.901718H150.83V31.5483H160.745V0.901718H161.06L163.449 9.91552H170.209ZM174.581 21.3621V0H184.496V28.6638C184.496 29.415 184.721 30.0088 185.173 30.4436C185.623 30.88 186.239 31.0966 187.021 31.0966C187.802 31.0966 188.365 30.8784 188.8 30.4436C189.235 30.0088 189.453 29.415 189.453 28.6638V0H199.369V21.3621C199.369 22.9557 199.113 24.4039 198.602 25.7117C198.092 27.0194 197.371 28.1377 196.439 29.0698C195.506 30.002 194.388 30.7227 193.08 31.2336C191.773 31.7445 190.323 32 188.731 32H185.215C183.622 32 182.174 31.7445 180.866 31.2336C179.558 30.7227 178.44 30.002 177.508 29.0698C176.575 28.1394 175.855 27.0194 175.344 25.7117C174.833 24.4039 174.577 22.9557 174.577 21.3621H174.581ZM220.91 0H205.046V31.5483H214.962V18.0276H220.91C222.262 18.0276 223.487 17.8178 224.583 17.3966C225.679 16.9753 226.618 16.368 227.4 15.5711C228.182 14.7743 228.782 13.8201 229.203 12.7086C229.625 11.5988 229.834 10.3655 229.834 9.0138C229.834 7.66207 229.625 6.43045 229.203 5.31895C228.782 4.20745 228.182 3.25329 227.4 2.45646C226.618 1.66133 225.679 1.05229 224.583 0.631034C223.487 0.209781 222.262 0 220.91 0ZM214.962 17.1259V0.901718H215.187C216.748 0.901718 217.928 1.60042 218.724 2.99783C219.52 4.39355 219.919 6.36955 219.919 9.0138C219.919 11.658 219.513 13.6713 218.702 15.0534C217.89 16.4356 216.72 17.1259 215.187 17.1259H214.962Z"
    fill="url(#paint0_linear_410_626)" />
  <g clip-path="url(#clip0_410_626)">
    <path fill-rule="evenodd" clip-rule="evenodd"
      d="M67.631 19.112V22.9186V22.9204L77.523 19.0301H77.5466V15.1199H77.523L67.631 11.2097V15.0162L72.7052 17.0641L67.631 19.112ZM57.5644 25.6575L63.3825 5.82446H66.8362L61.0182 25.6575H57.5644ZM9.92472 11.3897V15.1962L4.84687 17.2459L9.92472 19.3065V23.1185L0.0200059 19.2065H0V15.2999H0.0200059L9.92472 11.3897Z"
      fill="url(#paint1_linear_410_626)" />
    <path fill-rule="evenodd" clip-rule="evenodd"
      d="M24.4799 10.6676C25.462 11.8152 25.9804 13.3284 25.9185 14.8779V23.3259H22.4648V15.6545C22.5048 14.7997 22.2484 13.9595 21.7428 13.292C21.5063 12.9992 21.2099 12.7682 20.8771 12.6136C20.5442 12.4609 20.1823 12.3881 19.8204 12.4045C17.6579 12.4045 16.5758 13.9977 16.5758 17.1841V23.3259H13.1221V9.45636H16.5758V10.7095C17.1178 10.1493 17.7634 9.7128 18.4691 9.42544C19.1766 9.1399 19.9313 9.00895 20.6861 9.04351C21.3899 9.01259 22.0938 9.1399 22.7467 9.41998C23.4014 9.70007 23.9907 10.1256 24.4781 10.6676H24.4799Z"
      fill="white" />
    <path fill-rule="evenodd" clip-rule="evenodd"
      d="M30.3162 3.68921V23.5223H33.7699V3.68921H30.3162Z" fill="white" />
    <path fill-rule="evenodd" clip-rule="evenodd"
      d="M53.2882 22.7931H50.4074L47.5811 14.6234L44.7294 22.7931H41.8522L37.0107 8.8999H40.7009L43.4217 17.2078L46.2243 8.8999H48.9197L51.7223 17.2369L54.4431 8.8999H58.1333L53.2882 22.7931V22.7931Z"
      fill="white" />
  </g>
  <defs>
    <linearGradient id="paint0_linear_410_626" x1="84.8506" y1="15.96" x2="229.834" y2="15.96"
      gradientUnits="userSpaceOnUse">
      <stop stop-color="#635FED" />
      <stop offset="1" stop-color="#54E694" />
    </linearGradient>
    <linearGradient id="paint1_linear_410_626" x1="5.44557e-07" y1="15.6928" x2="81.3874"
      y2="15.6928" gradientUnits="userSpaceOnUse">
      <stop stop-color="#8257E5" />
      <stop offset="1" stop-color="#635FED" />
    </linearGradient>
    <clipPath id="clip0_410_626">
      <rect width="77.5463" height="21.9682" fill="white" transform="translate(0 3.68921)" />
    </clipPath>
  </defs>
</svg>