<svg width="40" height="40" viewBox="0 0 40 40" fill="none" xmlns="http://www.w3.org/2000/svg">
  <path fill-rule="evenodd" clip-rule="evenodd"
    d="M28.4926 20.2063L19.498 27.4019C18.8349 27.9325 17.8789 27.8795 17.2784 27.279L12.7213 22.722C12.1208 22.1215 12.0679 21.1655 12.5984 20.5023L19.7941 11.5077C23.0844 7.39476 28.066 5.00049 33.3332 5.00049V5.00049C34.2536 5.00049 34.9998 5.74668 34.9998 6.66715V6.66715C34.9998 11.9343 32.6056 16.9159 28.4926 20.2063Z"
    stroke="#857BF8" stroke-width="2" stroke-linecap="round" stroke-linejoin="round"></path>
  <path
    d="M26.6668 21.6665V28.9698C26.6668 29.6011 26.3102 30.1782 25.7455 30.4605L21.719 32.4739C21.2868 32.6899 20.7822 32.7078 20.3358 32.523C19.8894 32.3381 19.5453 31.9686 19.3925 31.5102L18.3335 28.3332"
    stroke="#857BF8" stroke-width="2" stroke-linecap="round" stroke-linejoin="round"></path>
  <path
    d="M11.6666 21.6668L8.48971 20.6078C8.03136 20.4551 7.66186 20.1109 7.47697 19.6645C7.29207 19.2181 7.30998 18.7135 7.52605 18.2814L9.53938 14.2548C9.82168 13.6902 10.3987 13.3335 11.03 13.3335H18.3333"
    stroke="#857BF8" stroke-width="2" stroke-linecap="round" stroke-linejoin="round"></path>
  <path fill-rule="evenodd" clip-rule="evenodd"
    d="M9.5835 34.3114L5 35L5.68858 30.4165C5.91196 28.9296 7.07917 27.7624 8.56607 27.539V27.539C9.64054 27.3776 10.7279 27.7356 11.4962 28.5039C12.2644 29.2722 12.6225 30.3596 12.4611 31.434V31.434C12.2376 32.9209 11.0704 34.0881 9.5835 34.3114V34.3114Z"
    stroke="white" stroke-width="2" stroke-linecap="round" stroke-linejoin="round"></path>
</svg>