<svg width="108" height="32" viewBox="0 0 108 32" fill="none" xmlns="http://www.w3.org/2000/svg">
  <path
    d="M16.1846 0C25.14 0 32.3691 7.14667 32.3691 16C32.3691 24.8533 25.14 32 16.1846 32C7.2291 32 0 24.8533 0 16C0 7.14667 7.2291 0 16.1846 0ZM16.1846 4.26667C9.60283 4.26667 4.31588 9.49333 4.31588 16C4.31588 22.5067 9.60283 27.7333 16.1846 27.7333C22.7663 27.7333 28.0532 22.5067 28.0532 16C28.0532 9.49333 22.7663 4.26667 16.1846 4.26667V4.26667ZM43.6983 6.29333C43.9141 6.18667 44.1299 6.4 44.1299 6.50667V11.0933H52.7617C52.8695 11.0933 53.0854 11.3067 53.0854 11.4133L53.7327 14.08L54.3801 16.7467L54.488 17.0667L54.5959 16.7467L56.2144 11.4133C56.2144 11.2 56.4301 11.0933 56.5381 11.0933H60.854C60.9618 11.0933 61.1776 11.3067 61.1776 11.4133L62.904 17.0667L63.0119 16.7467L64.4145 11.4133C64.4145 11.2 64.6303 11.0933 64.7382 11.0933H75.7437C75.8516 11.0933 75.9595 11.3067 75.9595 11.4133V25.6C75.9595 25.8133 75.7437 25.92 75.6358 25.92H70.1331C69.9173 25.92 69.8094 25.7067 69.8094 25.6L69.8086 12.16L65.7092 25.6C65.7092 25.7867 65.5441 25.8917 65.4305 25.915L65.3856 25.92H60.854C60.746 25.92 60.5302 25.7067 60.5302 25.6L59.667 22.72L58.696 19.6267L56.7538 25.6C56.7538 25.8133 56.5381 25.92 56.4301 25.92H51.8985C51.7905 25.92 51.5747 25.7067 51.5747 25.6L47.4747 12.16V15.5733C47.4747 15.7867 47.2589 15.8933 47.151 15.8933H44.0219V19.52C44.0219 20.5867 44.5614 21.0133 45.5326 21.0133C45.9641 21.0133 46.5036 20.9067 47.0431 20.6933C47.151 20.5867 47.3668 20.6933 47.3668 20.9067V25.1733C46.3958 25.7067 44.9931 26.0267 43.4825 26.0267C39.9219 26.0267 37.9797 24.4267 37.9797 20.9067V15.8933H36.5771C36.3613 15.8933 36.2534 15.68 36.2534 15.5733V11.52C36.2534 11.3067 36.4692 11.2 36.5771 11.2H37.9797V8.32C37.9797 8.10667 38.0877 8 38.3035 8L43.6983 6.29333ZM99.3732 10.7733C104.121 10.7733 107.573 14.2933 107.573 18.3467C107.573 22.4 104.121 25.92 99.2652 25.92C94.5178 25.92 91.0651 22.4 91.0651 18.3467C91.0651 14.2933 94.5178 10.7733 99.3732 10.7733V10.7733ZM82.9728 6.29333C83.1886 6.29333 83.2965 6.4 83.2965 6.50667V25.4933C83.2965 25.7067 83.0806 25.8133 82.9728 25.8133H77.47C77.2542 25.8133 77.1464 25.6 77.1464 25.4933V6.61333C77.1464 6.4 77.3622 6.29333 77.47 6.29333H82.9728ZM90.2019 11.0933C90.4177 11.0933 90.5256 11.3067 90.5256 11.4133V25.3867C90.5256 25.6 90.3098 25.7067 90.2019 25.7067H84.6991C84.4833 25.7067 84.3755 25.4933 84.3755 25.3867V11.4133C84.3755 11.2 84.5913 11.0933 84.6991 11.0933H90.2019ZM12.1923 16.64C14.0267 16.64 15.5372 18.1333 15.5372 19.9467C15.5372 21.76 14.0267 23.2533 12.1923 23.2533C10.3581 23.2533 8.84755 21.76 8.84755 19.9467C8.84755 18.1333 10.3581 16.64 12.1923 16.64ZM20.1768 16.64C22.011 16.64 23.5215 18.1333 23.5215 19.9467C23.5215 21.76 22.011 23.2533 20.1768 23.2533C18.3424 23.2533 16.8319 21.76 16.8319 19.9467C16.8319 18.1333 18.3424 16.64 20.1768 16.64ZM99.3732 15.8933C97.9705 15.8933 96.9994 17.0667 96.9994 18.4533C96.9994 19.84 98.0783 21.0133 99.3732 21.0133C100.776 21.0133 101.747 19.84 101.747 18.4533C101.747 16.96 100.668 15.7867 99.3732 15.8933V15.8933ZM20.1768 8.74667C22.011 8.74667 23.5215 10.24 23.5215 12.0533C23.5215 13.8667 22.011 15.36 20.1768 15.36C18.3424 15.36 16.8319 13.8667 16.8319 12.0533C16.8319 10.24 18.3424 8.74667 20.1768 8.74667ZM12.1923 8.74667C14.0267 8.74667 15.5372 10.24 15.5372 12.0533C15.5372 13.8667 14.0267 15.36 12.1923 15.36C10.3581 15.36 8.84755 13.8667 8.84755 12.0533C8.84755 10.24 10.3581 8.74667 12.1923 8.74667ZM75.8516 6.29333C75.9595 6.29333 76.0674 6.4 76.1753 6.50667V9.92C76.1753 10.1333 75.9595 10.24 75.8516 10.24H70.1331C69.9173 10.24 69.8094 10.0267 69.8094 9.92V6.61333C69.8094 6.4 70.0251 6.29333 70.1331 6.29333H75.8516ZM90.3097 6.29333C90.5256 6.29333 90.6335 6.4 90.6335 6.50667V9.92C90.6335 10.1333 90.4177 10.24 90.3097 10.24H84.5913C84.3755 10.24 84.2676 10.0267 84.2676 9.92V6.61333C84.2676 6.4 84.4833 6.29333 84.5913 6.29333H90.3097Z"
    fill="#E1E1E6"></path>
</svg>