<svg width="100" height="100" viewBox="0 0 100 100" fill="none" xmlns="http://www.w3.org/2000/svg">
<g clip-path="url(#clip0_3227_1154)">
<path d="M92 0H8C3.58172 0 0 3.58172 0 8V92C0 96.4183 3.58172 100 8 100H92C96.4183 100 100 96.4183 100 92V8C100 3.58172 96.4183 0 92 0Z" fill="url(#paint0_linear_3227_1154)"/>
<path d="M51.0508 84.1584L15.8413 49.2173L37.9752 55.3968L51.0508 84.1584Z" fill="#015F43"/>
<path d="M67.1676 79.3545L55.5952 67.8706L64.4712 36.0583L67.1676 79.3545Z" fill="#015F43"/>
<path d="M83.9004 16.3369L67.1671 79.3544L64.4707 36.0584L83.9004 16.3369Z" fill="#00B27E"/>
<path d="M83.9004 16.3369L64.4707 36.0584L67.1671 79.3544L65.7733 36.7097L83.9004 16.3369Z" fill="#00D2A3"/>
<path d="M64.47 36.0584L32.4467 44.7233L21.0437 33.3203L64.47 36.0584Z" fill="#00865F"/>
<path d="M83.8997 16.3369L64.47 36.0584L21.0437 33.3203L83.8997 16.3369Z" fill="#00D2A3"/>
<path d="M63.6885 34.2347L21.0437 33.3203L64.47 36.0584L83.8997 16.3369L63.6885 34.2347Z" fill="#7AFFE0"/>
<path d="M51.0509 84.1585L37.9753 55.3969L64.4704 36.0583L55.5944 67.8706L51.0509 84.1585Z" fill="#00865F"/>
<path d="M51.0509 84.1585L37.9753 55.3969L64.4704 36.0583L55.5944 67.8706L51.0509 84.1585Z" fill="#00865F"/>
<path d="M51.0509 84.1585L39.4082 55.8528L64.4704 36.0583L55.5944 67.8706L51.0509 84.1585Z" fill="#00865F"/>
<path d="M64.4702 36.0583L37.9752 55.3969L15.8413 49.2174L32.4469 44.7234L64.4702 36.0583Z" fill="#00B27E"/>
<path d="M37.6496 53.9641L15.8413 49.2174L37.9752 55.3969L64.4702 36.0583L37.6496 53.9641Z" fill="#00D2A3"/>
</g>
<defs>
<linearGradient id="paint0_linear_3227_1154" x1="98.9865" y1="-1.23627" x2="23.6445" y2="115.288" gradientUnits="userSpaceOnUse">
<stop stop-color="#00291D"/>
<stop offset="1" stop-color="#121214"/>
</linearGradient>
<clipPath id="clip0_3227_1154">
<rect width="100" height="100" fill="white"/>
</clipPath>
</defs>
</svg>
